<svg width="20" height="20" xmlns="http://www.w3.org/2000/svg" xmlns:xlink="http://www.w3.org/1999/xlink" x="0px" y="0px"
	 viewBox="0 0 512 512" style="enable-background:new 0 0 512 512;" xml:space="preserve">
<g>
	<g>
		<g>
			<path d="M214.376,178.426c11.333,11.333,26.4,17.574,42.427,17.574c16.027,0,31.094-6.241,42.469-17.617l60.913-61.284
				c7.787-7.834,7.749-20.498-0.085-28.284c-7.834-7.786-20.497-7.749-28.284,0.086L276,145.056V20c0-11.046-8.954-20-20-20
				c-11.046,0-20,8.954-20,20v123.507l-54.885-54.676c-7.825-7.795-20.488-7.772-28.284,0.054
				c-7.796,7.826-7.771,20.489,0.054,28.284L214.376,178.426z"/>
			<path d="M299.229,333.574C287.896,322.241,272.829,316,256.803,316s-31.094,6.241-42.399,17.547l-61.519,61.284
				c-7.825,7.795-7.85,20.458-0.054,28.284C156.738,427.038,161.868,429,167,429c5.105,0,10.213-1.943,14.115-5.831L236,368.494V492
				c0,11.046,8.954,20,20,20s20-8.954,20-20V366.944l55.815,56.156c7.785,7.835,20.45,7.871,28.284,0.086
				c7.834-7.787,7.872-20.45,0.085-28.284L299.229,333.574z"/>
			<path d="M492,237H20c-11.046,0-20,8.954-20,20c0,11.046,8.954,20,20,20h472c11.046,0,20-8.954,20-20
				C512,245.954,503.046,237,492,237z"/>
		</g>
	</g>
</g>
<g>
</g>
<g>
</g>
<g>
</g>
<g>
</g>
<g>
</g>
<g>
</g>
<g>
</g>
<g>
</g>
<g>
</g>
<g>
</g>
<g>
</g>
<g>
</g>
<g>
</g>
<g>
</g>
<g>
</g>
</svg>
